<svg width="151" height="38" viewBox="0 0 151 38" fill="none" xmlns="http://www.w3.org/2000/svg">
<path d="M1.89997 0C0.847373 0 0 0.84739 0 1.89997V34.2C0 36.3052 1.69473 38 3.79994 38H36.1C37.1526 38 38 37.1526 38 36.1V32.3C38 31.2474 37.1526 30.4 36.1 30.4H12.9743L37.4424 5.93194C38.1867 5.18764 38.1867 3.98949 37.4424 3.24518L34.7547 0.55848C34.0104 -0.185799 32.8124 -0.185799 32.0681 0.55848L26.9812 5.64526C26.9762 5.6486 26.9729 5.6536 26.9663 5.65861L25.0663 7.55858L25.0646 7.56026L7.59907 25.0267V1.90018C7.59907 0.847593 6.7517 0.000152813 5.6991 0.000152813L1.89997 0Z" fill="#2546FF"/>
<path d="M45.6001 7.60255V30.4001H66.2428V24.4573H52.3274V7.60255H45.6001Z" fill="white"/>
<path d="M70.0708 7.60245V30.4H76.753V7.60245H70.0708Z" fill="white"/>
<path d="M89.2434 30.3999V15.6246C91.3169 14.0837 92.6071 13.4491 94.5424 13.4491C96.9384 13.4491 97.9521 14.2196 97.9521 17.4829V30.3999H104.634V16.5764C104.634 11.1376 102.284 7.60243 96.8002 7.60243C93.3443 7.60243 90.7178 8.87155 88.5522 10.5485L88.2296 7.60014H82.562V30.3999H89.2434Z" fill="white"/>
<path d="M114.636 30.3999L117.631 25.5247V25.4783C118.184 24.4568 118.783 23.4353 119.382 22.4138C120.074 23.3889 120.719 24.5033 121.364 25.5247L121.41 25.5711L124.82 30.3999H132.192L124.497 19.1173L131.639 7.60256H124.497L121.732 12.3385C121.272 13.2207 120.765 14.1492 120.258 15.1243C119.659 14.1957 119.014 13.2206 118.461 12.292L115.235 7.60256H107.909L115.051 18.5601L107.448 30.3999H114.636Z" fill="white"/>
<path d="M133.406 7.60262L133.454 13.0863H136.602V22.2869C136.602 26.9097 138.716 30.3999 145.643 30.3999V30.3987C147.487 30.3987 149.106 29.9461 150.365 29.5382L150.951 29.3565L149.736 24.0989L148.971 24.4161C148.432 24.6427 147.577 24.8692 146.947 24.8692C145.193 24.8692 144.248 24.1448 144.248 21.9694V13.086H150.141V7.6024L133.406 7.60262Z" fill="white"/>
</svg>
